<?xml version="1.0" encoding="UTF-8"?>
<svg id="Layer_1" xmlns="http://www.w3.org/2000/svg" version="1.1" viewBox="960 1240 1080 520">
  <!-- Generator: Adobe Illustrator 30.2.1, SVG Export Plug-In . SVG Version: 2.1.1 Build 1)  -->
  <defs>
    <style>
      .st0 {
        fill: #ffffff;
      }

      .st1 {
        fill: #0a1811;
      }
    </style>
  </defs>
  
  
  <path class="st0" d="M1823.07,1636.18c-63.72-3.13-126.91,10.52-186.95,28.51l-39.85,11.94-63.72,19.49-31.66,9.16c-38.45,11.12-95.92,23.28-135.61,20.03l-13.93-1.14c-26.65-2.18-59.08-14.03-79.16-31.84-8.98-7.96-17.44-15.51-23.69-25.93-4.57-6.21-8.38-12.61-11.1-19.87l-14.2-48.13-100.33-.03-19.01,68c-17.85,6.18-36.64,6.95-54.79,2.3-8.03-2.84-15.29-6.88-19.04-14.79-3.03-6.38-4.01-14.69-1.97-21.8l11.95-41.65,61.77-180.98,16.62-45.3c30.08-13.56,64.01-16.62,95.37-6.28,9.51,3.14,18.65,9.13,22.32,18.45,7.45,18.99,13.54,37.44,19.49,57.07l62.25,205.16c3.87,12.74,14.34,24.27,24.73,30.89,18.5,11.79,51.74,13.49,72.86,11.76,28-2.3,55.03-5.73,82.59-11.5l47.65-9.97,50.8-11.69,55.44-12.17c26.58-5.84,52.47-11.46,79.65-13.35l15.55-1.08,13.97-.9,20.7-.7c2.54-.09,4.71-.09,7.33-.04,39.66.74,78.07,8.66,114.43,24.71,16.43,7.69,31.8,16.23,46.13,27.36-39.87-19.84-81.28-33.46-126.57-35.68ZM1209.38,1535.95l-19.74-68.56-12.71-42.76-2.51-1.27c-.38-.19-1.14,1.06-1.28,1.48l-15.35,45.42-21.64,65.62,73.24.07Z"/>
  <path class="st0" d="M1347.23,1601.36c24.15,13.31,56.64,19.87,82.03,9.4,16.98-7,17.13-22,16.24-38.41-21.52,8.63-44.2,9.15-66.52,3.47-32.74-8.34-50.42-36.43-53.53-68.8-3.84-40.07,6.74-78.43,45.73-96.1,34.35-15.57,83.16-11.69,114.74,8.86,9.28,6.04,13.93,15.08,13.92,25.87l-.2,144.18c-.04,27.89-16.26,50.81-41.59,61.67-28.83,12.36-72.61,12.6-101.36,1.22-8.32-3.3-15.35-8.88-18.35-17.52-4.18-12.06-.65-25.45,8.88-33.83ZM1411.01,1536.21c12.46,1.38,24.47-.59,33.86-7.96v-76.05c-11.94-6.51-25.84-7.89-38.81-3.48-11.55,3.93-19.78,13.18-22.58,25.08-5.25,22.3-2.85,59.04,27.53,62.41Z"/>
  <path class="st0" d="M1904.2,1544.76c17.23,4.91,34.31,1.93,49.56-5.74,3-1.51,4.81-.86,7.11,1.24,6.55,6,10.37,13.02,9.87,21.86-.94,16.68-18.48,25.55-33.4,28.09-22.25,3.79-44.78,2.46-66.12-4.74-25.37-8.57-44.18-27.73-51.74-53.58-6.14-20.98-6.56-43.27-1.07-64.49,13.47-51.99,66.45-72.8,115.6-63.98,9.16,1.64,17.48,5.44,24.47,11.16,10.56,8.64,12.72,23.02,5.15,34.23-1.79,2.65-4.01,5.11-6.37,7.45-14.13-7.42-28.83-11.48-44.72-9-14.99,2.34-28.96,11.03-35.15,25.26-6.67,15.35-6.58,33.16-.6,48.67,4.54,11.78,14.93,20.01,27.4,23.56Z"/>
  <path class="st0" d="M1580.45,1585.92c-12.97,3.89-27.18,4.37-40.81,1.75-9.26-1.78-16.08-9.08-16.1-19.24l-.24-119.78c-.02-9.84,3.97-18.06,11.22-24.39,20.56-17.95,56.86-23.9,83.56-22.06,6.29.43,12.5,2.06,17.91,4.79,16.04,8.09,14.09,29.88,5.69,41.34-21.24-3.78-41.87-1.75-61.22,7.81v129.78Z"/>
  <path class="st0" d="M1798.14,1585.91c-12.95,3.95-27.02,4.32-40.52,1.81-9-1.67-15.95-8.94-15.97-19l-.24-159.2c12.71-3.93,26.57-4.67,39.74-2.22,10.29,1.91,15.73,9,16.91,19.64l.07,158.97Z"/>
  <path class="st0" d="M1714.39,1585.9c-12.7,3.91-26.68,4.3-40.09,1.94-9.54-1.67-16.48-9.01-16.49-19.53l-.19-158.84c12.69-3.81,26.38-4.57,39.47-2.23,10.56,1.89,16.05,9.15,17.22,19.98l.08,158.68Z"/>
  <path class="st0" d="M1755.44,1306.9c-14.86-2.62-49.43,26.38-57.4,38.42l-3.4-10.97c-3.36-10.85-5.82-23.4,6.9-29.6,13.88-6.76,28.72-6.24,43.36-1.76,5.73,1.75,12.64.77,19.09.93-4.12,3.38-7.23,6.68-9.41,11.24-6.29,13.2-20.69,14.11-32.16,11.19,10.47-9.01,20.82-14.87,33.02-19.45Z"/>
  <path class="st0" d="M1698.84,1351.1c18.75-29.82,31.33-13.17,53.63-21.32-.97,7.86-5.6,14.64-10.64,18.24-16.99,12.15-27.85-3.56-42.99,3.08Z"/>
  <path class="st0" d="M1685.98,1367.44c-2.35-3.15-4.45-6.18-6.88-8.64-15.12-15.29-4.15-36.75,11.88-47.99-7.9,17.27,11.1,27.75-4.99,56.62Z"/>
  <path class="st0" d="M1736.09,1363.62c-12.78,4.97-19.53,15.15-36.63,10.44-3.35-.92-6.79-.61-11.1-.4,1.94-4.18,4.66-8.22,7.77-11.83,6.64-7.69,16.71-9.15,25.49-3.56,4.24,2.7,8.94,4.86,14.47,5.34Z"/>
  <path class="st0" d="M1714.1,1386.93c-11.17,2.69-18.15,8.04-29.66-1.58,5.11-6.77,13.57-7.12,20.1-3l9.57,4.59Z"/>
  <path class="st0" d="M1680.58,1370.46c1.8,8.34,1.78,26.39-7.07,29.25,7.47-8.61,9.76-19.55.98-26.35-6.39-4.95-9.31-12.39-9.19-19.72,3.05,8.08,12.88,5.71,15.28,16.82Z"/>
</svg>